<svg width="100" height="100" viewBox="0 0 100 100" fill="none" xmlns="http://www.w3.org/2000/svg">
<mask id="mask0_3133_13" style="mask-type:alpha" maskUnits="userSpaceOnUse" x="0" y="0" width="100" height="100">
<path fill-rule="evenodd" clip-rule="evenodd" d="M70.9119 99.0592C72.4869 99.6728 74.2828 99.6335 75.8725 98.8685L96.4608 88.9618C98.6242 87.9208 100 85.7313 100 83.3293V16.1554C100 13.7534 98.6243 11.5639 96.4609 10.5229L75.8725 0.615882C73.7862 -0.388003 71.3446 -0.142114 69.5135 1.18908C69.252 1.37924 69.0028 1.59156 68.769 1.82554L29.3551 37.7836L12.1872 24.7517C10.589 23.5386 8.35363 23.638 6.86933 24.9882L1.36303 29.997C-0.452552 31.6485 -0.454633 34.5048 1.35853 36.1591L16.2471 49.7422L1.35853 63.3253C-0.454633 64.9795 -0.452552 67.8359 1.36303 69.4874L6.86933 74.4962C8.35363 75.8464 10.589 75.9458 12.1872 74.7326L29.3551 61.7008L68.769 97.6588C69.3925 98.2827 70.1246 98.7525 70.9119 99.0592ZM75.0152 27.041L45.1091 49.7422L75.0152 72.4433V27.041Z" fill="white"/>
</mask>
<g mask="url(#mask0_3133_13)">
<path d="M96.4597 10.5375L75.8552 0.616845C73.4702 -0.53147 70.62 -0.0470864 68.7483 1.82463L1.29686 63.3245C-0.517412 64.9786 -0.515326 67.835 1.30136 69.4865L6.811 74.4953C8.29621 75.8455 10.533 75.9449 12.1321 74.7318L93.3592 13.1112C96.0843 11.0439 99.9983 12.9875 99.9983 16.408V16.1688C99.9983 13.7678 98.6229 11.5791 96.4597 10.5375Z" fill="#0065A9"/>
<g filter="url(#filter0_d_3133_13)">
<path d="M96.4597 88.9457L75.8552 98.8664C73.4702 100.015 70.62 99.5303 68.7483 97.6586L1.29686 36.1588C-0.517412 34.5046 -0.515326 31.6482 1.30136 29.9967L6.811 24.9879C8.29621 23.6377 10.533 23.5383 12.1321 24.7514L93.3592 86.372C96.0843 88.4393 99.9983 86.4957 99.9983 83.0753V83.3145C99.9983 85.7154 98.6229 87.9041 96.4597 88.9457Z" fill="#007ACC"/>
</g>
<g filter="url(#filter1_d_3133_13)">
<path d="M75.8578 98.8685C73.4721 100.016 70.6219 99.5308 68.75 97.6589C71.0564 99.9653 75 98.3317 75 95.07V4.41438C75 1.15264 71.0564 -0.480857 68.75 1.82554C70.6219 -0.046349 73.4721 -0.531417 75.8578 0.615882L96.4587 10.5229C98.6234 11.5639 100 13.7534 100 16.1554V83.3293C100 85.7313 98.6234 87.9208 96.4586 88.9618L75.8578 98.8685Z" fill="#1F9CF0"/>
</g>
<g style="mix-blend-mode:overlay" opacity="0.25">
<path fill-rule="evenodd" clip-rule="evenodd" d="M70.8494 99.0593C72.4244 99.6728 74.2204 99.6335 75.81 98.8686L96.3983 88.9619C98.5617 87.9209 99.9375 85.7314 99.9375 83.3293V16.1555C99.9375 13.7534 98.5618 11.5639 96.3984 10.5229L75.81 0.615882C73.7238 -0.388003 71.2821 -0.142114 69.451 1.18907C69.1895 1.37924 68.9403 1.59156 68.7065 1.82554L29.2926 37.7836L12.1247 24.7518C10.5266 23.5386 8.29113 23.6381 6.80683 24.9882L1.30053 29.997C-0.515052 31.6486 -0.517133 34.5049 1.29603 36.1591L16.1846 49.7422L1.29603 63.3254C-0.517133 64.9796 -0.515052 67.8359 1.30053 69.4874L6.80683 74.4962C8.29113 75.8464 10.5266 75.9458 12.1247 74.7327L29.2926 61.7008L68.7065 97.6589C69.33 98.2827 70.0621 98.7526 70.8494 99.0593ZM74.9527 27.0411L45.0466 49.7422L74.9527 72.4434V27.0411Z" fill="url(#paint0_linear_3133_13)"/>
</g>
</g>
<defs>
<filter id="filter0_d_3133_13" x="-8.39584" y="15.571" width="116.729" height="92.2448" filterUnits="userSpaceOnUse" color-interpolation-filters="sRGB">
<feFlood flood-opacity="0" result="BackgroundImageFix"/>
<feColorMatrix in="SourceAlpha" type="matrix" values="0 0 0 0 0 0 0 0 0 0 0 0 0 0 0 0 0 0 127 0" result="hardAlpha"/>
<feOffset/>
<feGaussianBlur stdDeviation="4.16667"/>
<feColorMatrix type="matrix" values="0 0 0 0 0 0 0 0 0 0 0 0 0 0 0 0 0 0 0.25 0"/>
<feBlend mode="overlay" in2="BackgroundImageFix" result="effect1_dropShadow_3133_13"/>
<feBlend mode="normal" in="SourceGraphic" in2="effect1_dropShadow_3133_13" result="shape"/>
</filter>
<filter id="filter1_d_3133_13" x="60.4167" y="-8.33334" width="47.9167" height="116.151" filterUnits="userSpaceOnUse" color-interpolation-filters="sRGB">
<feFlood flood-opacity="0" result="BackgroundImageFix"/>
<feColorMatrix in="SourceAlpha" type="matrix" values="0 0 0 0 0 0 0 0 0 0 0 0 0 0 0 0 0 0 127 0" result="hardAlpha"/>
<feOffset/>
<feGaussianBlur stdDeviation="4.16667"/>
<feColorMatrix type="matrix" values="0 0 0 0 0 0 0 0 0 0 0 0 0 0 0 0 0 0 0.25 0"/>
<feBlend mode="overlay" in2="BackgroundImageFix" result="effect1_dropShadow_3133_13"/>
<feBlend mode="normal" in="SourceGraphic" in2="effect1_dropShadow_3133_13" result="shape"/>
</filter>
<linearGradient id="paint0_linear_3133_13" x1="49.9375" y1="-5.67028e-07" x2="49.9375" y2="99.4845" gradientUnits="userSpaceOnUse">
<stop stop-color="white"/>
<stop offset="1" stop-color="white" stop-opacity="0"/>
</linearGradient>
</defs>
</svg>
