<svg width="108" height="108" viewBox="0 0 108 108" fill="none" xmlns="http://www.w3.org/2000/svg">
<path d="M22.1724 89.4494L15 9H93.815L86.6355 89.4373L54.3597 98.3853L22.1724 89.4494Z" fill="#1572B6"/>
<path d="M54.4092 91.5467L80.4899 84.3158L86.6258 15.5781H54.4092V91.5467Z" fill="#33A9DC"/>
<path d="M54.4092 44.7254H67.4656L68.3673 34.6217H54.4092V24.7549H79.1509L78.914 27.4023L76.4885 54.5923H54.4092V44.7254Z" fill="white"/>
<path d="M54.4669 70.3499L54.4233 70.3627L43.435 67.3957L42.7323 59.5264H32.8291L34.2109 75.019L54.4219 80.6284L54.4669 80.6155V70.3499Z" fill="#EBEBEB"/>
<path d="M66.6258 54.1738L65.4373 67.3872L54.4326 70.3577V80.6234L74.66 75.0176L74.8084 73.3504L76.5248 54.1738H66.6258Z" fill="white"/>
<path d="M54.4436 24.7549V34.6217H30.6107L30.4131 32.4045L29.9637 27.4023L29.7275 24.7549H54.4436ZM54.41 44.7269V54.5937H43.5601L43.3625 52.3765L42.9124 47.3743L42.6769 44.7269H54.41Z" fill="#EBEBEB"/>
</svg>
