<?xml version="1.0" encoding="UTF-8"?>
<svg id="Layer_2" data-name="Layer 2" xmlns="http://www.w3.org/2000/svg" xmlns:xlink="http://www.w3.org/1999/xlink" viewBox="0 0 648 648">
  <defs>
    <style>
      .cls-1 {
        fill: url(#linear-gradient);
      }

      .cls-1, .cls-2, .cls-3 {
        stroke-width: 0px;
      }

      .cls-2 {
        fill: #0a0a3f;
      }

      .cls-3 {
        fill: url(#linear-gradient-2);
      }
    </style>
    <linearGradient id="linear-gradient" x1="252.8" y1="247.26" x2="527.24" y2="425.48" gradientUnits="userSpaceOnUse">
      <stop offset="0" stop-color="#457bf4"/>
      <stop offset=".84" stop-color="#9659f7"/>
      <stop offset="1" stop-color="#3bd595"/>
    </linearGradient>
    <linearGradient id="linear-gradient-2" x1="121.69" y1="435.36" x2="394.25" y2="229.98" gradientUnits="userSpaceOnUse">
      <stop offset="0" stop-color="#9659f7"/>
      <stop offset="1" stop-color="#457bf4"/>
    </linearGradient>
  </defs>
  <g id="Layer_1-2" data-name="Layer 1">
    <g>
      <rect class="cls-2" width="648" height="648" rx="98.68" ry="98.68"/>
      <path class="cls-1" d="M549.17,307.82c-.77-10.99-2.33-21.75-4.62-32.25-2.41-11.07-5.63-21.85-9.59-32.25-4.78-12.56-10.64-24.58-17.49-35.95-29.94-49.82-78.49-87.17-136.03-102.45-10.47-2.78-21.24-4.83-32.25-6.09v450.23c11.01-1.27,21.78-3.31,32.25-6.09v-202.9h136.03v100.45c6.83-11.37,12.71-23.38,17.49-35.94,3.96-10.4,7.18-21.18,9.59-32.25,2.28-10.5,3.84-21.28,4.62-32.26.37-5.32.56-10.7.56-16.13s-.19-10.8-.56-16.13ZM381.45,307.82v-169.3c52.78,16.57,95.85,55.06,118.57,104.8,4.7,10.3,8.54,21.09,11.39,32.25,2.68,10.44,4.5,21.22,5.41,32.25h-135.37Z"/>
      <path class="cls-3" d="M173.65,340.07l-2.19,3.17-9.56,13.83-10.54,15.25-12.16,17.58v1.61c-.12-.34-.26-.69-.38-1.05l-9.76,14.12-11.97,17.32c3.06,6.38,6.41,12.59,10.03,18.62,2.49,4.15,5.12,8.22,7.87,12.18,1.37,1.99,2.77,3.94,4.2,5.88,9.5,12.83,20.31,24.63,32.25,35.18v-46.28c-6.09-7.39-11.65-15.23-16.61-23.48l13.42-19.43,3.19-4.62,9.33-13.5,9.78-14.15,10.09-14.6,12.19-17.65h50.32v202.9c6.91,1.83,13.96,3.35,21.11,4.53,3.68.61,7.4,1.12,11.14,1.56V98.83c-.74.1-1.48.18-2.21.27-10.24,1.28-20.28,3.24-30.04,5.83-57.55,15.29-106.09,52.63-136.03,102.45-3.82,6.34-7.32,12.88-10.51,19.6-2.53,5.33-4.86,10.79-6.98,16.34-2.68,7.03-5.02,14.24-7,21.59l6.86,10.67,17.62,27.43.96,1.49,2.14,3.33,2.85,4.43,6.12,9.53,11.46,17.83.3.47h22.68ZM168.58,307.82l-10.65-16.58-10.07-15.67-8.65-13.46-1.32-2.06c.43-1.23.87-2.45,1.32-3.66.65-1.75,1.31-3.48,2.02-5.21,1.07-2.66,2.2-5.28,3.38-7.87,22.71-49.74,65.79-88.23,118.57-104.8v169.31h-94.59Z"/>
    </g>
  </g>
</svg>