<svg width="108" height="108" viewBox="0 0 108 108" fill="none" xmlns="http://www.w3.org/2000/svg">
<path fill-rule="evenodd" clip-rule="evenodd" d="M74.8725 35.9434C76.2413 39.9031 77.2272 43.9455 77.5513 48.1355C77.9538 53.3335 77.7696 58.4949 76.6737 63.6076C76.6438 63.7483 76.5807 63.8805 76.5338 64.017C76.1901 64.0178 75.8396 63.9752 75.5036 64.0272C72.6645 64.4732 69.828 64.9355 66.9915 65.3951C64.0594 65.8702 61.1231 66.3264 58.1962 66.8339C57.1591 67.013 55.8756 66.7989 55.4569 68.2334C55.4449 68.2726 55.3255 68.2794 55.2565 68.3016L55.398 59.7298C55.3494 52.8354 55.3017 45.9411 55.2539 39.0468L56.6202 38.8123C58.8546 38.4464 61.089 38.0754 63.3251 37.7198C65.9937 37.296 68.6647 36.884 71.3349 36.4704C72.5127 36.2871 73.6922 36.119 74.8725 35.9434Z" fill="#439934"/>
<path fill-rule="evenodd" clip-rule="evenodd" d="M52.4377 93.2904C50.9964 92.0512 49.5048 90.8666 48.1232 89.5635C40.689 82.5515 35.2514 74.2986 32.5735 64.3486C31.8358 61.6102 31.3437 58.8274 31.1859 55.9977C31.075 54.0174 30.9147 52.0192 31.0546 50.0492C31.4272 44.8093 32.1846 39.6198 33.7214 34.5728L33.8058 34.4551C33.955 34.6538 34.17 34.8295 34.2459 35.0538C35.746 39.4714 37.235 43.8925 38.7164 48.3162C43.3712 62.2174 48.02 76.122 52.6824 90.0198C52.7737 90.291 53.0099 90.5136 53.1796 90.7583L52.4377 93.2904Z" fill="#45A538"/>
<path fill-rule="evenodd" clip-rule="evenodd" d="M74.8707 35.9434C73.6904 36.1191 72.5101 36.2871 71.3323 36.4687C68.6621 36.8824 65.991 37.2943 63.3225 37.7181C61.0863 38.0738 58.8519 38.4447 56.6175 38.8106L55.2512 39.0451L55.241 38.1539C55.1958 37.4213 55.1182 36.6896 55.1097 35.957C55.0508 31.2852 55.0142 26.6134 54.9562 21.9415C54.9203 19.0172 54.8666 16.0937 54.8069 13.1701C54.7702 11.3536 54.731 9.53622 54.6491 7.72224C54.6048 6.74746 54.4479 5.77778 54.3839 4.80299C54.3481 4.24268 54.3976 3.6781 54.4086 3.11523C55.1054 4.46527 55.7868 5.82554 56.5032 7.16534C57.6349 9.28378 59.4378 10.8445 61.0608 12.5476C67.4766 19.2781 72.0316 27.1038 74.8707 35.9434Z" fill="#46A037"/>
<path fill-rule="evenodd" clip-rule="evenodd" d="M55.2555 68.3026C55.3246 68.2804 55.4448 68.2736 55.4559 68.2344C55.8747 66.7999 57.1582 67.014 58.1952 66.8349C61.1222 66.3283 64.0585 65.8712 66.9905 65.3962C69.827 64.9365 72.6636 64.4742 75.5027 64.0282C75.8387 63.9753 76.1892 64.0188 76.5329 64.018C76.0024 65.9113 75.5845 67.8455 74.9116 69.6868C74.1475 71.7754 73.223 73.8136 72.2414 75.8118C70.7745 78.7993 68.9469 81.5855 66.8234 84.138C65.1868 86.1064 63.3626 87.9255 61.5341 89.7224C60.5235 90.716 59.3321 91.5253 58.2234 92.4182L57.936 92.2221L56.9006 91.3368L55.8295 88.989C55.0918 86.2403 54.7046 83.4421 54.6406 80.5988L54.6602 80.1203L54.8061 78.0514C54.8547 77.3452 54.9195 76.6399 54.9494 75.9321C55.0594 73.3889 55.1549 70.8458 55.2555 68.3026Z" fill="#409433"/>
<path fill-rule="evenodd" clip-rule="evenodd" d="M55.2516 68.301C55.1509 70.8441 55.0554 73.3873 54.9471 75.9313C54.9173 76.6391 54.8524 77.3444 54.8038 78.0506L54.1514 78.2971C52.7024 74.0312 51.2526 69.8105 49.8344 65.5787C47.4891 58.5778 45.1719 51.5658 42.83 44.5632C40.9393 38.9106 39.0332 33.264 37.116 27.6199C37.0265 27.3556 36.7689 27.1492 36.5898 26.9155L40.7653 19.2383C40.9086 19.4873 41.0979 19.7201 41.1883 19.9879C43.12 25.7045 45.0483 31.4219 46.9603 37.1452C49.4472 44.5905 51.9187 52.0417 54.4038 59.4878C54.5028 59.7854 54.6665 60.06 54.8226 60.3935L55.394 59.7283C55.3462 62.5861 55.2985 65.4431 55.2516 68.301Z" fill="#4FAA41"/>
<path fill-rule="evenodd" clip-rule="evenodd" d="M36.5952 26.916C36.7743 27.1497 37.031 27.3561 37.1214 27.6205C39.0385 33.2645 40.9446 38.9111 42.8353 44.5637C45.1772 51.5663 47.4944 58.5783 49.8397 65.5792C51.2571 69.8102 52.7069 74.0317 54.1567 78.2976L54.8091 78.0511L54.6633 80.1201L54.5311 80.5968C54.3043 82.8619 54.1132 85.1322 53.8369 87.3922C53.6979 88.5248 53.4028 89.6368 53.1785 90.7583C53.0097 90.5136 52.7726 90.291 52.6813 90.0198C48.0189 76.1211 43.3701 62.2174 38.7153 48.3162C37.2339 43.8925 35.7449 39.4714 34.2447 35.0538C34.1688 34.8295 33.9548 34.6538 33.8047 34.4551C34.7343 31.9418 35.6647 29.4285 36.5952 26.916Z" fill="#4AA73C"/>
<path fill-rule="evenodd" clip-rule="evenodd" d="M55.3982 59.7281L54.8268 60.3934C54.6707 60.0599 54.507 59.7844 54.4081 59.4876C51.9237 52.0415 49.4514 44.5903 46.9645 37.1451C45.0525 31.4217 43.1242 25.7043 41.1925 19.9878C41.103 19.72 40.9137 19.4863 40.7695 19.2381L45.9334 12.4453C46.0963 12.6628 46.3283 12.8564 46.4127 13.1011C47.8463 17.2979 49.2672 21.4999 50.6795 25.7043C51.9988 29.6308 53.2985 33.5632 54.6332 37.4845C54.7228 37.7472 55.034 37.9331 55.2421 38.1548L55.2524 39.0461C55.3018 45.9387 55.3504 52.8338 55.3982 59.7281Z" fill="#57AE47"/>
<path fill-rule="evenodd" clip-rule="evenodd" d="M55.2423 38.1533C55.0342 37.9316 54.7229 37.7457 54.6334 37.483C53.2987 33.5617 51.999 29.6293 50.6796 25.7028C49.2673 21.4983 47.8465 17.2973 46.4129 13.0996C46.3285 12.8549 46.0965 12.6613 45.9336 12.4438C47.6128 10.7995 49.24 9.09643 50.9866 7.52807C52.5396 6.13454 53.7882 4.64037 53.8453 2.43836C53.8479 2.3471 53.8957 2.25585 53.969 2L54.4116 3.1138C54.4005 3.67752 54.3502 4.24125 54.3869 4.80156C54.4508 5.77635 54.6078 6.74602 54.6521 7.72081C54.734 9.53479 54.7732 11.3522 54.8099 13.1687C54.8687 16.0922 54.9225 19.0157 54.9591 21.9401C55.0163 26.6119 55.0538 31.2838 55.1127 35.9556C55.1195 36.6899 55.1962 37.4208 55.2423 38.1533Z" fill="#60B24F"/>
<path fill-rule="evenodd" clip-rule="evenodd" d="M53.1756 90.7579C53.3999 89.6365 53.6949 88.5235 53.8339 87.3918C54.1111 85.1326 54.3013 82.8615 54.5282 80.5964L54.5844 80.5879L54.6407 80.5973C54.7047 83.4406 55.0919 86.2388 55.8296 88.9875C55.6795 89.1853 55.4671 89.3618 55.3878 89.5853C54.7678 91.3336 54.1836 93.0956 53.5602 94.8439C53.4749 95.0827 53.2378 95.2686 53.0707 95.4784L52.4336 93.29L53.1756 90.7579Z" fill="#A9AA88"/>
<path fill-rule="evenodd" clip-rule="evenodd" d="M53.0703 95.4792C53.2375 95.2694 53.4754 95.0835 53.5598 94.8447C54.1833 93.0964 54.7683 91.3353 55.3875 89.5861C55.4668 89.3627 55.6783 89.1861 55.8292 88.9883L56.8995 91.337C56.688 91.6372 56.3964 91.9075 56.2787 92.2418L54.2285 98.262C54.144 98.5034 53.8558 98.6739 53.663 98.8777L53.0703 95.4792Z" fill="#B6B598"/>
<path fill-rule="evenodd" clip-rule="evenodd" d="M53.6641 98.8767C53.8577 98.6737 54.1451 98.5023 54.2295 98.261L56.2797 92.2408C56.3965 91.9073 56.6891 91.6361 56.9006 91.3359L57.9368 92.2203C57.4361 92.715 57.1581 93.2864 57.3253 94.0087L57.0106 95.0389C56.8673 95.2155 56.6601 95.369 56.5893 95.5711C55.8738 97.6205 55.1906 99.6809 54.47 101.73C54.3787 101.99 54.1254 102.194 53.9463 102.423C53.8534 101.24 53.7587 100.06 53.6641 98.8767Z" fill="#C2C1A7"/>
<path fill-rule="evenodd" clip-rule="evenodd" d="M53.946 102.423C54.1242 102.193 54.3775 101.99 54.4696 101.73C55.1902 99.6819 55.8734 97.6214 56.5889 95.5712C56.6597 95.37 56.8661 95.2156 57.0102 95.0391L56.5761 99.768C56.4601 99.9019 56.2921 100.019 56.2367 100.175C55.7463 101.551 55.2841 102.938 54.792 104.314C54.6905 104.598 54.496 104.849 54.3442 105.114C54.2095 104.938 53.9681 104.767 53.957 104.583C53.9135 103.866 53.9434 103.144 53.946 102.423Z" fill="#CECDB7"/>
<path fill-rule="evenodd" clip-rule="evenodd" d="M54.3438 105.114C54.4956 104.848 54.69 104.597 54.7915 104.314C55.2844 102.938 55.7458 101.552 56.2362 100.174C56.2916 100.018 56.4605 99.9023 56.5756 99.7676L56.5858 102.872L55.5471 105.536L54.3438 105.114Z" fill="#DBDAC7"/>
<path fill-rule="evenodd" clip-rule="evenodd" d="M55.5469 105.537L56.5856 102.873L56.7997 106.025L55.5469 105.537Z" fill="#EBE9DC"/>
<path fill-rule="evenodd" clip-rule="evenodd" d="M57.3261 94.0091C57.1589 93.2867 57.4361 92.7145 57.9376 92.2207L58.225 92.4169L57.3261 94.0091Z" fill="#CECDB7"/>
<path fill-rule="evenodd" clip-rule="evenodd" d="M54.6399 80.5967L54.5836 80.5873L54.5273 80.5959L54.6595 80.1191L54.6399 80.5967Z" fill="#4FAA41"/>
</svg>
