<svg width="108" height="108" viewBox="0 0 108 108" fill="none" xmlns="http://www.w3.org/2000/svg">
<mask id="mask0_928_23" style="mask-type:luminance" maskUnits="userSpaceOnUse" x="8" y="2" width="92" height="103">
<path d="M99.545 2.92969H8.82812V104.98H99.545V2.92969Z" fill="white"/>
</mask>
<g mask="url(#mask0_928_23)">
<path d="M43.1683 92.3404C40.5559 93.8626 40.0648 94.0394 37.6096 94.9135C37.0105 95.1099 36.0971 95.4831 37.9435 96.534L50.2787 103.929C51.4572 104.617 52.8027 105 54.158 105C55.5035 105 56.8588 104.626 58.0373 103.929L94.9546 82.3622C97.3509 80.948 98.8339 78.3356 98.8339 75.5169V32.3633C98.8339 29.5545 97.3509 26.9421 94.9546 25.5475L58.0373 3.93143C55.7097 2.59577 52.6358 2.59577 50.2787 3.93143L13.4106 25.5181C11.0142 26.9127 9.53125 29.5447 9.53125 32.3437V75.5071C9.53125 78.3159 11.0142 80.9283 13.4106 82.3229L23.0843 87.97C27.7591 90.3172 29.4385 90.3172 31.5696 90.3172C38.4935 90.3172 42.5103 86.0647 42.5103 78.64V36.0462C42.5103 35.4177 42.0094 34.9561 41.43 34.9561H36.7552C36.1561 34.9561 35.665 35.4177 35.665 36.0462V78.64C35.665 81.9399 32.3259 85.1907 26.8064 82.431L16.7104 76.5187C16.3569 76.3419 16.131 75.9392 16.131 75.5169V32.3633C16.131 31.941 16.3569 31.5482 16.7104 31.3518L53.5786 9.75531H54.708L91.6056 31.3321C91.9592 31.558 92.1752 31.9312 92.1752 32.3535V75.5169C92.1752 75.9392 91.9494 76.3321 91.6154 76.5285L54.708 98.125H53.5786L44.1013 92.4288L43.1683 92.3404Z" fill="#8CC03E"/>
</g>
<path d="M43.1683 92.3404C40.5559 93.8626 40.0648 94.0394 37.6096 94.9135C37.0105 95.1099 36.0971 95.4831 37.9435 96.534L50.2787 103.929C51.4572 104.617 52.8027 105 54.158 105H54.1777V98.1348H53.5786L44.1013 92.4386L43.1683 92.3404ZM54.158 2.92969C52.8125 2.92969 51.4572 3.2636 50.2787 3.93143L13.4106 25.5181C11.0142 26.9127 9.53125 29.5447 9.53125 32.3437V75.5071C9.53125 78.3159 11.0142 80.9283 13.4106 82.3229L23.0843 87.97C27.7591 90.3172 29.4385 90.3172 31.5696 90.3172C38.4935 90.3172 42.5103 86.0647 42.5103 78.64V36.0462C42.5103 35.4177 42.0094 34.9561 41.43 34.9561H36.7552C36.1561 34.9561 35.665 35.4177 35.665 36.0462V78.64C35.665 81.0756 33.8481 83.4622 30.7054 83.4622C29.576 83.4622 28.2698 83.1479 26.8064 82.4211L16.7104 76.5089C16.3569 76.3321 16.131 75.9294 16.131 75.5071V32.3633C16.131 31.941 16.3569 31.5482 16.7104 31.3518L53.5786 9.75531H54.1777V2.92969C54.1777 2.92969 54.1777 2.92969 54.158 2.92969Z" fill="#7AA736"/>
<path d="M65.5437 68.7124C55.7718 68.7124 53.6308 66.2277 52.9139 61.2877C52.855 60.777 52.413 60.3842 51.8532 60.3842H47.09C46.4713 60.3842 46.0195 60.8752 46.0195 61.4645C46.0195 67.7598 49.4078 75.2631 65.583 75.2631C77.2308 75.2434 83.968 70.5686 83.968 62.4172L83.9484 62.4368C83.9484 54.3541 78.5664 52.2033 67.233 50.681C55.7522 49.1489 54.6031 48.3633 54.6031 45.633C54.6031 43.4036 55.5754 40.4082 64.0804 40.4082C71.6524 40.4082 74.4416 42.068 75.5907 47.2535C75.7085 47.7445 76.1505 48.0981 76.6317 48.0981H81.444L82.2199 47.7445L82.5047 46.9294C81.7779 37.9922 75.9049 33.8281 64.0804 33.8281C53.5424 33.8281 47.2668 38.3458 47.2668 45.8982C47.2668 54.0693 53.513 56.3281 63.609 57.3495C75.6987 58.5477 76.6317 60.3351 76.6317 62.7511C76.6415 66.9348 73.3416 68.7124 65.5437 68.7124Z" fill="#8CC03E"/>
<path d="M51.8532 60.3841H47.09C46.4713 60.3841 46.0195 60.8751 46.0195 61.4644C46.0195 67.6909 49.3292 75.0862 64.9741 75.263V68.7123C55.6736 68.6239 53.6112 66.1196 52.9041 61.2876C52.855 60.7573 52.413 60.3841 51.8532 60.3841ZM64.0804 33.8477C53.5424 33.8477 47.2668 38.3457 47.2668 45.8981C47.2668 54.0692 53.513 56.3575 63.609 57.3494C64.1001 57.3887 64.542 57.4378 64.9839 57.5065V50.3765C55.595 49.031 54.5933 48.1864 54.5933 45.6624C54.5933 43.4035 55.5656 40.4081 64.0706 40.4081C64.3849 40.4081 64.6893 40.4081 65.0036 40.4081V33.8575C64.6991 33.8477 64.3947 33.8477 64.0804 33.8477Z" fill="#7AA736"/>
</svg>
