<svg width="108" height="108" viewBox="0 0 108 108" fill="none" xmlns="http://www.w3.org/2000/svg">
<path d="M45.0839 54.3021C45.0839 49.3225 49.2473 45.2852 54.3837 45.2852C59.5195 45.2852 63.6836 49.3225 63.6836 54.3021C63.6836 59.2823 59.5195 63.3194 54.3837 63.3194C49.2473 63.3194 45.0839 59.2823 45.0839 54.3021Z" fill="#53C1DE"/>
<path fill-rule="evenodd" clip-rule="evenodd" d="M24.1767 37.5636C22.2128 29.8258 19.7442 15.477 28.4467 10.6123C37.1084 5.76876 48.3801 15.0498 54.3321 20.6207C60.2666 15.1053 71.8549 5.86394 80.5499 10.7441C89.2083 15.6039 86.5383 29.7148 84.5308 37.5011C92.6076 39.7253 106.453 44.516 106.453 54.3039C106.453 64.0641 92.622 69.2762 84.593 71.4984C86.6079 79.3277 89.1443 93.237 80.4748 98.086C71.7473 102.965 60.1951 93.9438 54.188 88.312C48.1979 93.9157 37.0345 102.996 28.371 98.1336C19.6804 93.2558 21.9438 79.0993 23.9514 71.2678C16.1682 69.0409 2.30749 63.9423 2.30749 54.3039C2.30749 44.61 16.2273 39.7805 24.1767 37.5636ZM25.1633 67.1176C26.4814 63.0719 28.2606 58.7697 30.4369 54.3254C28.3595 49.986 26.6494 45.7393 25.3681 41.7197C19.5405 43.3579 6.75624 47.1019 6.75624 54.3039C6.75624 61.5736 19.0243 65.3531 25.1633 67.1176ZM30.6004 94.4003C37.0644 98.0281 46.6662 89.3444 51.09 85.2178C48.1552 82.1056 45.2224 78.4876 42.3602 74.47C37.3251 74.0371 32.5687 73.3289 28.255 72.3621C26.8421 77.9016 24.1079 90.7563 30.6004 94.4003ZM78.2518 94.3486C84.7164 90.7344 81.7617 78.3223 80.2793 72.5551C76.0136 73.4702 71.2915 74.1284 66.2446 74.5252C63.3636 78.4563 60.3458 82.0698 57.3047 85.2345C61.0619 88.7584 71.757 97.9795 78.2518 94.3486ZM102.004 54.3039C102.004 47.0071 89.2966 43.2902 83.3361 41.6561C82.0327 45.7661 80.3232 50.0635 78.2601 54.4091C80.3499 58.8193 82.0838 63.1848 83.3993 67.3433C89.0827 65.7658 102.004 61.6052 102.004 54.3039ZM78.321 14.4774C71.8299 10.8344 61.7583 19.7065 57.4495 23.6998C60.4749 26.8499 63.4649 30.4362 66.3213 34.3448C71.2193 34.7849 75.9081 35.4917 80.2185 36.4388C81.8357 30.1588 84.805 18.1164 78.321 14.4774ZM39.1775 39.0334C35.8545 39.4399 32.6708 39.9808 29.6815 40.6424C30.5789 43.4315 31.6974 46.3479 33.0148 49.3376C34.9245 45.8244 36.9745 42.3817 39.1775 39.0334ZM54.3307 26.7824C52.2787 28.9378 50.2235 31.3447 48.2017 33.9559C52.3026 33.7678 56.4101 33.7671 60.511 33.9532C58.4875 31.3661 56.4146 28.9628 54.3307 26.7824ZM75.7076 49.3344C77.0032 46.3552 78.1117 43.4259 79.0169 40.597C76.0454 39.9523 72.8766 39.4253 69.5752 39.0254C71.7844 42.3664 73.8309 45.8077 75.7076 49.3344ZM69.4804 69.8904C72.8908 69.5213 76.1077 69.0211 79.0782 68.3941C78.1587 65.5155 77.0258 62.5231 75.7025 59.4796C73.8 63.0431 71.7223 66.5178 69.4804 69.8904ZM54.2074 82.1302C56.316 79.9241 58.4194 77.484 60.4735 74.8595C56.3494 75.0164 52.2172 75.0168 48.0934 74.8383C50.1214 77.5107 52.1693 79.9543 54.2074 82.1302ZM32.9725 59.3248C31.5804 62.4012 30.407 65.3774 29.4749 68.2074C32.4948 68.8756 35.7549 69.4137 39.19 69.8133C36.9706 66.4015 34.8881 62.9053 32.9725 59.3248ZM44.843 70.3361C51.1514 70.7732 57.4991 70.7683 63.8097 70.3719C67.3954 65.2934 70.5875 59.9524 73.3428 54.4077C70.6006 48.8745 67.4318 43.5439 63.8631 38.4734C57.5481 38.0107 51.1941 38.0093 44.8791 38.4762C41.3409 43.5464 38.177 48.863 35.3713 54.3463C38.1437 59.8768 41.3291 65.218 44.843 70.3361ZM30.6688 14.3491C24.176 17.9801 27.066 30.8759 28.4845 36.4836C32.8052 35.5167 37.4973 34.7974 42.4095 34.3503C45.2714 30.3995 48.2364 26.807 51.2129 23.6976C46.8488 19.6183 37.0987 10.7537 30.6688 14.3491Z" fill="#53C1DE"/>
</svg>
