<svg width="108" height="108" viewBox="0 0 108 108" fill="none" xmlns="http://www.w3.org/2000/svg">
<g clip-path="url(#paint0_angular_58_5_clip_path)" data-figma-skip-parse="true"><g transform="matrix(5.13889 1.06667 -1.77778 3.08333 4865.11 3010.67)"><foreignObject x="-1144.39" y="-1144.39" width="2288.79" height="2288.79"><div xmlns="http://www.w3.org/1999/xhtml" style="background:conic-gradient(from 90deg,rgba(14, 215, 181, 1) 0deg,rgba(34, 152, 189, 1) 62.3077deg,rgba(14, 215, 181, 1) 360deg);height:100%;width:100%;opacity:1"></div></foreignObject></g></g><path d="M54 24C40.6667 24 32.3333 30.6667 29 44C34 37.3333 39.8333 34.8333 46.5 36.5C50.3037 37.4509 53.0224 40.2104 56.0317 43.265C60.9339 48.2409 66.6076 54 79 54C92.3333 54 100.667 47.3333 104 34C99 40.6667 93.1667 43.1667 86.5 41.5C82.6963 40.5491 79.9776 37.7896 76.9683 34.735C72.0661 29.7591 66.3924 24 54 24ZM29 54C15.6667 54 7.33333 60.6667 4 74C9 67.3333 14.8333 64.8333 21.5 66.5C25.3037 67.4509 28.0224 70.2104 31.0317 73.265C35.9339 78.2409 41.6076 84 54 84C67.3333 84 75.6667 77.3333 79 64C74 70.6667 68.1667 73.1667 61.5 71.5C57.6963 70.5491 54.9776 67.7896 51.9683 64.735C47.0661 59.7591 41.3924 54 29 54Z" data-figma-gradient-fill="{&#34;type&#34;:&#34;GRADIENT_ANGULAR&#34;,&#34;stops&#34;:[{&#34;color&#34;:{&#34;r&#34;:0.13333334028720856,&#34;g&#34;:0.59607845544815063,&#34;b&#34;:0.74117648601531982,&#34;a&#34;:1.0},&#34;position&#34;:0.17307692766189575},{&#34;color&#34;:{&#34;r&#34;:0.054901961237192154,&#34;g&#34;:0.84313726425170898,&#34;b&#34;:0.70980393886566162,&#34;a&#34;:1.0},&#34;position&#34;:1.0}],&#34;stopsVar&#34;:[{&#34;color&#34;:{&#34;r&#34;:0.13333334028720856,&#34;g&#34;:0.59607845544815063,&#34;b&#34;:0.74117648601531982,&#34;a&#34;:1.0},&#34;position&#34;:0.17307692766189575},{&#34;color&#34;:{&#34;r&#34;:0.054901961237192154,&#34;g&#34;:0.84313726425170898,&#34;b&#34;:0.70980393886566162,&#34;a&#34;:1.0},&#34;position&#34;:1.0}],&#34;transform&#34;:{&#34;m00&#34;:10277.777343750,&#34;m01&#34;:-3555.5554199218750,&#34;m02&#34;:1503.9998779296875,&#34;m10&#34;:2133.3332519531250,&#34;m11&#34;:6166.666503906250,&#34;m12&#34;:-1139.3332519531250},&#34;opacity&#34;:1.0,&#34;blendMode&#34;:&#34;NORMAL&#34;,&#34;visible&#34;:true}"/>
<defs>
<clipPath id="paint0_angular_58_5_clip_path"><path d="M54 24C40.6667 24 32.3333 30.6667 29 44C34 37.3333 39.8333 34.8333 46.5 36.5C50.3037 37.4509 53.0224 40.2104 56.0317 43.265C60.9339 48.2409 66.6076 54 79 54C92.3333 54 100.667 47.3333 104 34C99 40.6667 93.1667 43.1667 86.5 41.5C82.6963 40.5491 79.9776 37.7896 76.9683 34.735C72.0661 29.7591 66.3924 24 54 24ZM29 54C15.6667 54 7.33333 60.6667 4 74C9 67.3333 14.8333 64.8333 21.5 66.5C25.3037 67.4509 28.0224 70.2104 31.0317 73.265C35.9339 78.2409 41.6076 84 54 84C67.3333 84 75.6667 77.3333 79 64C74 70.6667 68.1667 73.1667 61.5 71.5C57.6963 70.5491 54.9776 67.7896 51.9683 64.735C47.0661 59.7591 41.3924 54 29 54Z"/></clipPath></defs>
</svg>
